<svg width="128" height="128" viewBox="0 0 128 128" xmlns="http://www.w3.org/2000/svg">
  <!-- Background -->
  <rect width="128" height="128" fill="#2d3748" rx="16"/>
  
  <!-- Shield shape -->
  <path d="M64 16 L32 28 L32 64 C32 88 48 104 64 112 C80 104 96 88 96 64 L96 28 Z" 
        fill="#1a202c" stroke="#4a5568" stroke-width="2"/>
  
  <!-- Inner shield -->
  <path d="M64 24 L40 32 L40 64 C40 82 52 96 64 102 C76 96 88 82 88 64 L88 32 Z" 
        fill="#e53e3e"/>
  
  <!-- Wolf head -->
  <circle cx="64" cy="52" r="12" fill="#ffffff"/>
  
  <!-- Wolf ears -->
  <path d="M56 44 L60 36 L64 44 Z" fill="#ffffff"/>
  <path d="M64 44 L68 36 L72 44 Z" fill="#ffffff"/>
  
  <!-- Wolf eyes -->
  <circle cx="60" cy="50" r="2" fill="#2d3748"/>
  <circle cx="68" cy="50" r="2" fill="#2d3748"/>
  
  <!-- Wolf nose -->
  <circle cx="64" cy="54" r="1" fill="#2d3748"/>
  
  <!-- Security lock -->
  <rect x="60" y="72" width="8" height="6" fill="#38a169" rx="1"/>
  <path d="M62 72 C62 70 63 68 64 68 C65 68 66 70 66 72" stroke="#38a169" stroke-width="1" fill="none"/>
</svg>