<svg width="128" height="128" viewBox="0 0 128 128" xmlns="http://www.w3.org/2000/svg">
  <!-- Shield Background -->
  <path d="M64 8 L20 24 L20 64 C20 88 40 108 64 120 C88 108 108 88 108 64 L108 24 Z" 
        fill="#2D3748" stroke="#4A5568" stroke-width="2"/>
  
  <!-- Inner Shield Glow -->
  <path d="M64 16 L28 28 L28 64 C28 84 44 100 64 110 C84 100 100 84 100 64 L100 28 Z" 
        fill="#1A202C" opacity="0.8"/>
  
  <!-- Wolf Head Silhouette -->
  <g transform="translate(64, 50)">
    <!-- Wolf ears -->
    <path d="M-12 -20 L-8 -28 L-4 -20 Z" fill="#E53E3E"/>
    <path d="M4 -20 L8 -28 L12 -20 Z" fill="#E53E3E"/>
    
    <!-- Wolf head -->
    <ellipse cx="0" cy="-8" rx="16" ry="12" fill="#F7FAFC"/>
    
    <!-- Wolf snout -->
    <ellipse cx="0" cy="2" rx="8" ry="6" fill="#EDF2F7"/>
    
    <!-- Wolf eyes -->
    <circle cx="-6" cy="-12" r="2" fill="#2D3748"/>
    <circle cx="6" cy="-12" r="2" fill="#2D3748"/>
    <circle cx="-6" cy="-12" r="1" fill="#E53E3E"/>
    <circle cx="6" cy="-12" r="1" fill="#E53E3E"/>
    
    <!-- Wolf nose -->
    <ellipse cx="0" cy="-2" rx="2" ry="1.5" fill="#2D3748"/>
    
    <!-- Wolf mouth -->
    <path d="M0 0 Q-3 3 -6 2 M0 0 Q3 3 6 2" stroke="#2D3748" stroke-width="1" fill="none"/>
  </g>
  
  <!-- Security Elements -->
  <!-- Lock symbol -->
  <g transform="translate(64, 85)">
    <rect x="-4" y="-2" width="8" height="6" rx="1" fill="#38A169" stroke="#2F855A" stroke-width="1"/>
    <path d="M-2 -2 C-2 -4 0 -6 2 -6 C4 -6 6 -4 6 -2" stroke="#38A169" stroke-width="1.5" fill="none"/>
  </g>
  
  <!-- Warning triangles around shield -->
  <g opacity="0.6">
    <path d="M25 35 L30 25 L35 35 Z" fill="#F56565"/>
    <path d="M93 35 L98 25 L103 35 Z" fill="#F56565"/>
    <path d="M25 85 L30 95 L35 85 Z" fill="#F56565"/>
    <path d="M93 85 L98 95 L103 85 Z" fill="#F56565"/>
  </g>
  
  <!-- Scanning lines effect -->
  <g opacity="0.3">
    <line x1="20" y1="40" x2="108" y2="40" stroke="#4299E1" stroke-width="1"/>
    <line x1="20" y1="55" x2="108" y2="55" stroke="#4299E1" stroke-width="1"/>
    <line x1="20" y1="70" x2="108" y2="70" stroke="#4299E1" stroke-width="1"/>
  </g>
</svg>
